Coordinates
version=1
nRows=17
nColumns=36
inDegrees=yes

Units are S.I. units (second, meters, Newtons, ...)
If the header above contains a line with 'inDegrees', this indicates whether rotational values are in degrees (yes) or radians (no).

endheader
time	pelvis_tilt	pelvis_list	pelvis_rotation	pelvis_tx	pelvis_ty	pelvis_tz	hip_flexion_r	hip_adduction_r	hip_rotation_r	knee_angle_r	knee_angle_r_beta	ankle_angle_r	subtalar_angle_r	mtp_angle_r	hip_flexion_l	hip_adduction_l	hip_rotation_l	knee_angle_l	knee_angle_l_beta	ankle_angle_l	subtalar_angle_l	mtp_angle_l	lumbar_extension	lumbar_bending	lumbar_rotation	arm_flex_r	arm_add_r	arm_rot_r	elbow_flex_r	pro_sup_r	arm_flex_l	arm_add_l	arm_rot_l	elbow_flex_l	pro_sup_l
      0.00000000	      5.71309207	     -5.99987205	      5.76266042	      1.32654747	      0.97889617	     -0.03797553	     27.63041359	      7.39393231	      5.21924079	     20.16030501	      0.35186370	     14.82784591	     -3.53557825	     -6.67041792	     -5.52652074	     -1.66827407	      0.05866214	      9.51007074	      0.16598205	     21.25500009	      5.67672776	     -6.67041792	    -12.80885025	      7.03075941	     -1.05392481	     34.91804402	     -1.80723275	     59.55542571	    116.36158968	     80.75132915	     26.33687294	     -6.75542453	     69.63235521	    120.19868348	     91.53067650
      0.01666670	      5.28481110	     -6.84914818	      7.04212854	      1.32162511	      0.97571001	     -0.03592504	     28.76415846	      7.86977503	      5.20317896	     17.03271530	      0.29727696	     16.99463091	      1.95930673	     -6.84079019	     -3.55229068	     -2.73295823	      0.31689914	     12.10309687	      0.21123889	     22.31808400	      4.01034058	     -6.84079019	    -13.79141700	      7.67061528	      2.30420936	     35.39592540	     -6.32031537	     64.97952088	    122.40517320	     96.34380448	     28.87700437	     -6.43266198	     69.50332396	    122.19213417	    106.78947698
      0.03333330	      4.19272221	     -6.82447204	      6.42630986	      1.32358398	      0.97388779	     -0.03374770	     29.75149241	      7.63737945	      2.52099001	     14.15348383	      0.24702489	     19.24443535	      6.26873441	     -6.85750846	     -1.49257553	     -2.63085023	     -0.30506884	     13.79985309	      0.24085287	     23.78140454	      2.57163041	     -6.85750846	    -11.85162311	      7.66054808	      2.68975548	     34.75040827	     -3.94864196	     62.76788587	    121.70083341	     96.67315377	     27.96916023	     -7.24458923	     68.35587782	    122.15407721	    107.55374586
      0.05000000	      4.03858533	     -7.04107591	      6.73542363	      1.32280206	      0.97519399	     -0.03397941	     30.71334910	      7.41147011	      0.51996757	     15.16377496	      0.26465780	     22.41307148	      9.19747116	     -6.93043617	     -0.19865423	     -2.88677373	      0.11674960	     15.54522702	      0.27131539	     25.72323692	      3.10508626	     -6.93043617	    -11.13669117	      8.07845668	      1.48326141	     35.27383838	     -2.51906711	     63.05945994	    120.28073367	     98.64449101	     27.24298139	     -7.64360528	     66.46647562	    122.04617226	    109.58026997
      0.06666670	      3.87171524	     -6.96168119	      6.46470730	      1.32299858	      0.97281563	     -0.03389220	     32.26419900	      7.22107910	     -0.09459701	     17.82816640	      0.31116020	     23.09503136	      9.97079886	     -7.21131338	      1.01645421	     -2.80243075	      0.15592643	     17.18862861	      0.29999816	     27.44289544	      3.59316375	     -7.21131338	    -10.89277556	      7.80177695	      1.73163805	     35.11984570	     -2.09238460	     62.94821449	    119.94869240	    100.32085576	     27.39333534	     -6.99452697	     65.78618724	    121.69435266	    109.68314304
      0.08333330	      4.04655129	     -6.60856526	      6.35182139	      1.32692385	      0.97616507	     -0.03632074	     33.38863785	      6.84663571	      0.17539460	     20.59576170	      0.35946385	     22.37781223	      9.29805530	     -7.21914251	      1.12808931	     -2.41181887	      0.03316051	     17.81940340	      0.31100726	     28.43310787	      4.24705517	     -7.21914251	    -10.95550925	      7.41272687	      1.82442528	     34.58528071	     -1.92230034	     63.18907691	    119.69528470	    100.32262681	     27.25606236	     -6.33501982	     65.40654934	    121.20440521	    109.38000714
      0.10000000	      4.32858630	     -6.09105994	      6.45907883	      1.32238127	      0.97628905	     -0.03310625	     34.38228929	      6.34751596	      0.86780936	     22.79388534	      0.39782835	     20.66119113	      8.08276345	     -7.22781139	      1.22905075	     -1.95016997	     -0.11443957	     18.37975444	      0.32078723	     28.84697139	      4.76210254	     -7.22781139	    -11.44090383	      6.69600832	      1.89623477	     34.32388843	     -1.64815269	     63.52807049	    119.41804129	    100.25596608	     27.91149794	     -5.94106987	     65.60811860	    120.77098411	    108.89300776
      0.11666670	      4.72040325	     -5.64923086	      6.80524582	      1.32167312	      0.97931485	     -0.03313271	     34.92883311	      5.72163326	      0.92062478	     24.00239718	      0.41892086	     19.11125113	      7.69276752	     -7.22972931	      1.03294735	     -1.58707343	     -0.15555672	     18.70666091	      0.32649282	     28.93825474	      5.08645569	     -7.22972931	    -12.08321620	      6.28349117	      1.87443827	     34.13038811	     -1.52363646	     63.73003279	    119.26676148	    100.21937059	     28.40092599	     -5.87191704	     65.57726919	    120.60267057	    108.73620158
      0.13333330	      5.00652831	     -5.11188430	      6.95337564	      1.32160709	      0.97923996	     -0.03281727	     35.22148388	      5.33623506	      2.17614508	     24.56188338	      0.42868574	     17.71499776	      6.22773734	     -7.27048567	      0.83584096	     -1.20566389	     -0.60684279	     18.92464325	      0.33029733	     28.89355615	      5.71121384	     -7.27048567	    -12.40959573	      5.55435879	      2.49844374	     33.96034055	     -1.67983528	     63.45870964	    119.21914420	     98.11245747	     29.36602392	     -5.66913434	     66.53385025	    119.97985341	    105.51106647
      0.15000000	      5.02175963	     -4.68872450	      7.16916942	      1.32051599	      0.97917672	     -0.03282552	     35.68776750	      4.77738744	      2.56703856	     24.94269682	      0.43533218	     16.90344716	      5.94588171	     -7.28570068	      0.96519492	     -0.84306857	     -0.71492706	     19.20246286	      0.33514620	     28.80822012	      5.79890267	     -7.28570068	    -12.49522175	      5.04599118	      2.48264347	     33.93486255	     -1.66203592	     63.36493051	    119.25560542	     96.99806282	     29.88426048	     -5.55110367	     66.59952178	    120.25886209	    104.62452636
      0.16666670	      5.46865753	     -4.33260386	      7.41056158	      1.32040820	      0.97961161	     -0.03290496	     35.45382506	      4.38531145	      3.07120302	     24.95004660	      0.43546046	     16.07080931	      5.32745773	     -7.32304942	      0.58584576	     -0.64513025	     -0.85515225	     19.32614264	      0.33730482	     28.75470786	      6.01588835	     -7.32304942	    -12.95474176	      4.59358153	      2.96633769	     33.90249609	     -1.75125724	     63.39236303	    119.48423237	     96.16432901	     30.68857493	     -5.05786497	     67.14131172	    119.77844085	    103.61066642
      0.18333330	      5.54749025	     -4.13137025	      7.59932028	      1.32375280	      0.97991258	     -0.03603521	     35.37634371	      4.04897680	      3.30418774	     24.58960908	      0.42916964	     15.81855830	      5.39664509	     -7.32374558	      0.36036254	     -0.48266890	     -0.80371729	     19.24988892	      0.33597394	     28.70859664	      6.12533718	     -7.32374558	    -12.75925441	      4.46966607	      2.94101063	     33.80788429	     -1.85076030	     63.45494746	    119.52049347	     96.17866411	     30.71381146	     -4.82519094	     67.06998002	    119.84462196	    103.57464380
      0.20000000	      5.86057320	     -3.95431171	      7.70405978	      1.32385332	      0.97995508	     -0.03599202	     34.81483853	      3.80196494	      3.55378494	     24.16962722	      0.42183957	     15.53410666	      5.34337957	     -7.33495656	     -0.22159366	     -0.36661385	     -0.72106386	     18.95011037	      0.33074182	     28.53283056	      6.20053121	     -7.33495656	    -12.82448275	      4.36964209	      3.14851194	     33.75700361	     -2.08521192	     63.37476776	    119.88254369	     95.08846863	     30.70715325	     -4.60735086	     67.22355540	    120.02906338	    101.32323533
      0.21666670	      6.13771860	     -3.80128338	      7.74700284	      1.32257270	      0.98046621	     -0.03578419	     34.51429103	      3.61227242	      3.82491164	     24.00355199	      0.41894101	     15.24843927	      5.34082134	     -7.34510877	     -0.57306845	     -0.25941224	     -0.69902345	     18.90004798	      0.32986807	     28.56227679	      6.31478986	     -7.34510877	    -12.94254337	      4.20676262	      3.35857136	     33.53783130	     -2.26284337	     63.37718752	    119.87201859	     94.50952512	     30.90892949	     -4.58158831	     67.41715550	    120.02462893	    101.29748025
      0.23333330	      6.39893499	     -3.62283712	      7.81529166	      1.32226075	      0.97837243	     -0.03594117	     34.42679817	      3.41467375	      4.09948228	     24.12166815	      0.42100253	     15.15476177	      5.32201722	     -7.37551414	     -0.78108936	     -0.13212777	     -0.71501277	     19.03009554	      0.33213782	     28.71692427	      6.35839739	     -7.37551414	    -12.97410756	      3.95483185	      3.60649364	     33.45296557	     -2.39953433	     63.03210550	    120.07828774	     94.98458546	     31.60041154	     -4.36083103	     68.00978239	    120.04877428	    101.05832522
      0.25000000	      6.63064859	     -3.44237501	      7.92518522	      1.32103754	      0.97919638	     -0.03589698	     34.41820928	      3.15651430	      4.26199191	     24.44106389	      0.42657704	     15.22215631	      5.31658874	     -7.38994642	     -0.83582294	      0.00251946	     -0.70499755	     19.38153890	      0.33827167	     29.00970336	      6.32077159	     -7.38994642	    -13.15172944	      3.72842408	      3.61332090	     33.59332712	     -2.49428656	     63.17748501	    120.02489409	     93.89186717	     31.89500999	     -4.44163353	     68.25208265	    120.03594763	     99.44766185
      0.26666670	      6.85069635	     -3.18099797	      8.04315465	      1.31690244	      0.98172525	     -0.03248819	     34.43299570	      2.92159108	      4.46447877	     24.58269420	      0.42904895	     15.05660012	      5.31081604	     -7.39153969	     -0.80025052	      0.19959500	     -0.69598148	     19.64953798	      0.34294913	     29.13421170	      6.24809692	     -7.39153969	    -13.52171390	      3.32045348	      3.69515517	     33.89581534	     -2.48078627	     62.96457547	    119.73564016	     93.96295481	     32.40353624	     -4.65479297	     68.25098010	    120.02646196	     99.50605305
